<svg width="150" height="150" viewBox="0 0 150 150" fill="none" xmlns="http://www.w3.org/2000/svg">
<path fill-rule="evenodd" clip-rule="evenodd" d="M49.6714 26.2392C36.7447 26.2392 26.2445 36.737 26.2445 49.6659V101.336C26.2445 114.264 36.7449 124.764 49.6714 124.764H101.34C114.266 124.764 124.767 114.264 124.767 101.336V49.6659C124.767 36.737 114.266 26.2392 101.34 26.2392H49.6714ZM21.425 49.6659C21.425 34.0769 34.082 21.421 49.6714 21.421H101.34C116.929 21.421 129.586 34.0769 129.586 49.6659V101.336C129.586 116.924 116.929 129.582 101.34 129.582H49.6714C34.0818 129.582 21.425 116.924 21.425 101.336V49.6659Z" fill="#692499"/>
<path fill-rule="evenodd" clip-rule="evenodd" d="M42.9574 12.8219C26.3292 12.8219 12.8232 26.3251 12.8232 42.9556V108.043C12.8232 124.673 26.3294 138.178 42.9574 138.178H108.043C124.671 138.178 138.177 124.673 138.177 108.043V42.9556C138.177 26.325 124.671 12.8219 108.043 12.8219H42.9574ZM8 42.9556C8 23.663 23.6645 8 42.9574 8H108.043C127.336 8 143 23.663 143 42.9556V108.043C143 127.334 127.336 143 108.043 143H42.9574C23.6643 143 8 127.334 8 108.043V42.9556Z" fill="#692499"/>
<path d="M65.5857 87.09C63.3008 82.3196 62.1135 77.5058 62.1135 73.1416C62.1135 68.3834 63.5375 63.9841 66.7132 60.9451C66.8454 60.8186 66.9804 60.6947 67.118 60.5736L52.6811 42.2865L40.8387 92.5889L65.5857 87.09Z" fill="#FF99CB"/>
<path d="M99.8359 62.3219C96.9025 63.0816 93.5493 65.629 91.1852 71.5647C90.8204 72.4804 89.9341 73.0813 88.9482 73.0813C87.9623 73.0813 87.076 72.4804 86.7113 71.5647C84.3473 65.6292 80.9936 63.0817 78.0594 62.3219C76.8517 62.0091 75.6412 61.9774 74.4948 62.1771L90.8304 82.8692C91.3416 83.5167 91.4839 84.3815 91.2071 85.1588C90.9303 85.936 90.2733 86.5164 89.4678 86.6954L73.1377 90.324C74.6751 92.3186 76.5893 94.3232 78.7385 96.2735C81.9332 99.1726 85.5401 101.856 88.948 104.106C92.355 101.856 95.9614 99.1726 99.1558 96.2736C102.786 92.9793 105.745 89.5301 107.352 86.2358C107.361 86.2158 107.371 86.1959 107.382 86.1761C109.81 81.5293 110.965 76.9883 110.965 73.1416C110.965 69.2876 109.818 66.305 107.851 64.4227C105.84 62.4985 102.83 61.5465 99.8359 62.3219Z" fill="#DBFFFF"/>
<path d="M70.043 64.4227C68.0761 66.305 66.9289 69.2876 66.9289 73.1416C66.9289 76.9436 68.0577 81.4238 70.428 86.014L84.6989 82.843L70.1081 64.3611C70.0863 64.3815 70.0646 64.4021 70.043 64.4227Z" fill="#DF9FFF"/>
<path fill-rule="evenodd" clip-rule="evenodd" d="M12.8232 42.9556C12.8232 26.3251 26.3292 12.8219 42.9574 12.8219H108.043C124.671 12.8219 138.177 26.325 138.177 42.9556V108.043C138.177 124.673 124.671 138.178 108.043 138.178H42.9574C26.3294 138.178 12.8232 124.673 12.8232 108.043V42.9556ZM21.425 49.6659C21.425 34.0769 34.082 21.421 49.6714 21.421H101.34C116.929 21.421 129.586 34.0769 129.586 49.6659V101.336C129.586 116.924 116.929 129.582 101.34 129.582H49.6714C34.0818 129.582 21.425 116.924 21.425 101.336V49.6659Z" fill="#DBB3CE"/>
<path fill-rule="evenodd" clip-rule="evenodd" d="M26.2445 49.6659C26.2445 36.737 36.7447 26.2392 49.6714 26.2392H101.34C114.266 26.2392 124.767 36.737 124.767 49.6659V101.336C124.767 114.264 114.266 124.764 101.34 124.764H49.6714C36.7449 124.764 26.2445 114.264 26.2445 101.336V49.6659ZM98.6282 57.6616C103.347 56.4394 108.049 57.948 111.181 60.9451C114.356 63.9841 115.781 68.3834 115.781 73.1416C115.781 77.8983 114.37 83.189 111.665 88.3756C109.67 92.4524 106.209 96.3742 102.392 99.8381C98.5389 103.335 94.1814 106.492 90.2438 109.005C89.4538 109.509 88.443 109.509 87.653 109.005C83.7141 106.492 79.3558 103.335 75.502 99.8381C72.6586 97.2579 70.013 94.4236 68.0235 91.4604L38.149 98.0986C37.3434 98.2776 36.5025 98.03 35.9227 97.443C35.3429 96.8561 35.1057 96.0123 35.2948 95.2092L49.1509 36.3526C49.3618 35.4568 50.0669 34.7606 50.9655 34.561C51.8641 34.3614 52.7975 34.6936 53.3677 35.4159L71.2671 58.0886C73.7166 57.169 76.4889 56.9422 79.2669 57.6616C82.909 58.6047 86.3075 61.0986 88.9482 65.3188C91.5886 61.0987 94.9866 58.6048 98.6282 57.6616Z" fill="#FFFFCD"/>
<path fill-rule="evenodd" clip-rule="evenodd" d="M111.181 60.9451C108.049 57.948 103.347 56.4394 98.6282 57.6616C94.9866 58.6048 91.5886 61.0987 88.9482 65.3188C86.3075 61.0986 82.909 58.6047 79.2669 57.6616C76.4889 56.9422 73.7166 57.169 71.2671 58.0886L53.3677 35.4159C52.7975 34.6936 51.8641 34.3614 50.9655 34.561C50.0669 34.7606 49.3618 35.4568 49.1509 36.3526L35.2948 95.2092C35.1057 96.0123 35.3429 96.8561 35.9227 97.443C36.5025 98.03 37.3434 98.2776 38.149 98.0986L68.0235 91.4604C70.013 94.4236 72.6586 97.2579 75.502 99.8381C79.3558 103.335 83.7141 106.492 87.653 109.005C88.443 109.509 89.4538 109.509 90.2438 109.005C94.1814 106.492 98.5389 103.335 102.392 99.8381C106.209 96.3742 109.67 92.4524 111.665 88.3756C114.37 83.189 115.781 77.8983 115.781 73.1416C115.781 68.3834 114.356 63.9841 111.181 60.9451ZM99.8359 62.3219C96.9025 63.0816 93.5493 65.629 91.1852 71.5647C90.8204 72.4804 89.9341 73.0813 88.9482 73.0813C87.9623 73.0813 87.076 72.4804 86.7113 71.5647C84.3473 65.6292 80.9936 63.0817 78.0594 62.3219C76.8517 62.0091 75.6412 61.9774 74.4948 62.1771L90.8304 82.8692C91.3416 83.5167 91.4839 84.3815 91.2071 85.1588C90.9303 85.936 90.2733 86.5164 89.4678 86.6954L73.1377 90.324C74.6751 92.3186 76.5893 94.3232 78.7385 96.2735C81.9332 99.1726 85.5401 101.856 88.948 104.106C92.355 101.856 95.9614 99.1726 99.1558 96.2736C102.786 92.9793 105.745 89.5301 107.352 86.2358C107.361 86.2158 107.371 86.1959 107.382 86.1761C109.81 81.5293 110.965 76.9883 110.965 73.1416C110.965 69.2876 109.818 66.305 107.851 64.4227C105.84 62.4985 102.83 61.5465 99.8359 62.3219ZM70.043 64.4227C68.0761 66.305 66.9289 69.2876 66.9289 73.1416C66.9289 76.9436 68.0577 81.4238 70.428 86.014L84.6989 82.843L70.1081 64.3611C70.0863 64.3815 70.0646 64.4021 70.043 64.4227ZM62.1135 73.1416C62.1135 68.3834 63.5375 63.9841 66.7132 60.9451C66.8454 60.8186 66.9804 60.6947 67.118 60.5736L52.6811 42.2865L40.8387 92.5889L65.5857 87.09C63.3008 82.3196 62.1135 77.5058 62.1135 73.1416Z" fill="#692499"/>
</svg>
